<svg xmlns="http://www.w3.org/2000/svg" viewBox="0 0 55.16896 43.22951">
  <g stroke="#323232" stroke-linecap="round" stroke-linejoin="round">
    <g fill="#fff" stroke-width="1.59396">
      <path d="M27.58422.51949l5.40717 3.12184m-10.81435 0L27.58422.51949m-5.40718 3.12184V9.885m0 0l5.40718 3.12184m-5.40718-9.36551l5.40718 3.12184m0 6.24367L32.99139 9.885m-5.40717-3.12183l5.40717-3.12184m-5.40717 3.12184v6.24367m5.40717-9.36551V9.885M22.17704 3.64133l5.40718 3.12184v6.24367L22.17704 9.885zm10.81435 0l-5.40717 3.12184v6.24367L32.99139 9.885zm-10.81435 0l5.40718 3.12184 5.40717-3.12184L27.58422.51949z" stroke-width="1.0315630932000002"/>
    </g>
    <g fill="#fff" stroke-width="1.59396">
      <path d="M35.68905 14.5616l5.40718 3.12184m-10.81435 0l5.40717-3.12184m-5.40717 3.12184v6.24367m0 0l5.40717 3.12184m-5.40717-9.36551l5.40717 3.12184m0 6.24367l5.40718-3.12184m-5.40718-3.12183l5.40718-3.12184m-5.40718 3.12184v6.24367m5.40718-9.36551v6.24367m-10.81435-6.24367l5.40717 3.12184v6.24368l-5.40717-3.12185zm10.81435 0l-5.40718 3.12184v6.24367l5.40718-3.12184zm-10.81435 0l5.40717 3.12184 5.40718-3.12184-5.40718-3.12184z" stroke-width="1.0315630932000002"/>
    </g>
    <g fill="#2a8e68" stroke-width="1.59396">
      <path d="M35.69025 5.19835l5.40718 3.12184m-10.81435 0l5.40717-3.12184M30.28308 8.3202v6.24367m0 0l5.40717 3.12184m-5.40717-9.3655l5.40717 3.12183m0 6.24367l5.40718-3.12184m-5.40718-3.12183l5.40718-3.12184m-5.40718 3.12184v6.24367m5.40718-9.3655v6.24366M30.28308 8.3202l5.40717 3.12185v6.24367l-5.40717-3.12185zm10.81435 0l-5.40718 3.12184v6.24367l5.40718-3.12184zm-10.81435 0l5.40717 3.12184 5.40718-3.12184-5.40718-3.12184z" stroke-width="1.0315630932000002"/>
    </g>
    <g fill="#fff" stroke-width="1.59396">
      <path d="M19.47984 14.55745l5.40718 3.12184m-10.81435 0l5.40717-3.12184m-5.40717 3.12184v6.24367m0 0l5.40717 3.12184m-5.40717-9.36551l5.40717 3.12184m0 6.24367l5.40718-3.12184m-5.40718-3.12183l5.40718-3.12184m-5.40718 3.12184v6.24367m5.40718-9.36551v6.24367m-10.81435-6.24367l5.40717 3.12184v6.24368l-5.40717-3.12185zm10.81435 0l-5.40718 3.12184v6.24367l5.40718-3.12184zm-10.81435 0l5.40717 3.12184 5.40718-3.12184-5.40718-3.12184z" stroke-width="1.0315630932000002"/>
    </g>
    <path d="M19.4787 5.19675l5.40717 3.12184m-10.81435 0l5.40717-3.12184m-5.40717 3.12184v6.24367m0 0l5.40717 3.12184m-5.40717-9.36551l5.40717 3.12184m0 6.24367l5.40718-3.12184m-5.40718-3.12183l5.40718-3.12184m-5.40718 3.12184v6.24367m5.40718-9.36551v6.24367M14.07152 8.31859l5.40717 3.12184v6.24367l-5.40717-3.12184zm10.81435 0l-5.40718 3.12184v6.24367l5.40718-3.12184zm-10.81435 0l5.40717 3.12184 5.40718-3.12184-5.40718-3.12184z" fill="#2a8e68" stroke-width="1.0315740216"/>
    <g fill="#2a8e68" stroke-width="1.59396">
      <path d="M27.58705 19.23815L32.99423 22.36m-10.81435 0l5.40717-3.12184M22.17988 22.36v6.24367m0 0l5.40717 3.12184M22.17988 22.36l5.40717 3.12183m0 6.24367l5.40718-3.12184m-5.40718-3.12183l5.40718-3.12184m-5.40718 3.12184v6.24367m5.40718-9.3655v6.24366M22.17988 22.36l5.40717 3.12185v6.24367l-5.40717-3.12185zm10.81435 0l-5.40718 3.12184v6.24367l5.40718-3.12184zm-10.81435 0l5.40717 3.12184 5.40718-3.12184-5.40718-3.12184z" stroke-width="1.0315630932000002"/>
    </g>
  </g>
  <g fill="#323232">
    <g style="line-height:1.25" aria-label="swapchain" font-weight="400" font-size="9.30647" font-family="geomanist" letter-spacing="0" word-spacing="0" stroke-width=".23266">
      <path style="-inkscape-font-specification:geomanist" d="M0 39.80963c.276.58798.86397 1.33195 2.17192 1.33195 1.21196 0 2.12393-.74397 2.12393-1.84793 0-2.17192-3.1439-1.64394-3.1439-3.04789 0-.53998.456-.86396 1.03197-.86396.80397 0 1.12797.46798 1.29596.80396l.69597-.39598c-.168-.46799-.76797-1.19996-1.93193-1.19996-1.12796 0-2.00393.63598-2.00393 1.69194 0 2.11192 3.1319 1.61994 3.1319 3.05989 0 .63597-.528.99597-1.15197.99597-.85197 0-1.29595-.46798-1.55994-.95997zM11.21922 40.9856h1.04396l2.11193-6.23979h-1.03196l-1.64394 5.13582s-.0116-.02398-1.66794-5.13582h-.93598c-1.66792 5.11182-1.67993 5.13582-1.67993 5.13582L5.78342 34.7458H4.75145l2.09992 6.23978h1.04398l1.66794-4.95583zM14.87197 39.06566c0 1.21196 1.00796 2.07592 2.37591 2.07592.83997 0 1.36796-.31199 1.69194-.68397l.10805.52798h.81597v-4.11585c0-1.33195-.67197-2.27992-2.37591-2.27992-1.05597 0-1.88394.41998-2.30392.68398l.38398.69597c.44398-.26399 1.06797-.53998 1.83593-.53998.92397 0 1.51196.50398 1.51196 1.37996v.76796c-.252-.26398-.85198-.56397-1.64395-.56397-1.40395 0-2.3999.86396-2.3999 2.05192zm.95996-.0116c0-.73199.61197-1.28397 1.55995-1.28397.93596 0 1.55994.50398 1.55994 1.28396 0 .75597-.63598 1.29595-1.54795 1.29595-.95997 0-1.57194-.57598-1.57194-1.29595zM21.39692 43.22951h.94797v-3.25189c.19199.324.89996 1.16396 2.20792 1.16396 1.76393 0 2.97589-1.35595 2.97589-3.28787 0-1.90794-1.27195-3.26389-3.04789-3.26389-1.35595 0-2.01593.91197-2.17192 1.13996v-.98397h-.91197zm.91197-5.3758c0-1.30796.81597-2.39993 2.11192-2.39993 1.19995 0 2.13593.93598 2.13593 2.39993 0 1.42794-.88797 2.42391-2.11193 2.42391-1.17595 0-2.13592-.88797-2.13592-2.42391zM33.72385 35.4418c-.324-.312-1.05596-.85198-2.19593-.85198-1.81192 0-3.19188 1.42795-3.19188 3.27588 0 1.84794 1.34396 3.27588 3.20389 3.27588 1.16396 0 1.93193-.62398 2.18392-.88797l-.288-.80396c-.25198.25198-.87596.82797-1.85992.82797-1.28395 0-2.25593-1.06796-2.25593-2.41192 0-1.35595.92397-2.39991 2.23193-2.39991.94797 0 1.59594.52799 1.84793.79197zM37.69233 34.58982c-.85197 0-1.54794.49198-1.84793 1.05597V32.3099h-.94797v8.6757h.94797v-3.79188c0-1.03195.67198-1.73994 1.63195-1.73994.83996 0 1.47594.6 1.47594 1.59595v3.93586h.94796v-3.89986c0-1.41595-.75598-2.4959-2.20792-2.4959zM41.07415 39.06566c0 1.21196 1.00796 2.07592 2.37592 2.07592.83996 0 1.36795-.31199 1.69193-.68397l.10805.52798h.81597v-4.11585c0-1.33195-.67197-2.27992-2.37591-2.27992-1.05596 0-1.88394.41998-2.30393.68398l.384.69597c.44398-.26399 1.06796-.53998 1.83593-.53998.92397 0 1.51195.50398 1.51195 1.37996v.76796c-.252-.26398-.85197-.56397-1.64395-.56397-1.40395 0-2.3999.86396-2.3999 2.05192zm.95996-.0116c0-.73199.61198-1.28397 1.55995-1.28397.93596 0 1.55995.50398 1.55995 1.28396 0 .75597-.63599 1.29595-1.54796 1.29595-.95996 0-1.57194-.57598-1.57194-1.29595zM47.5991 40.9856h.94797V34.7458h-.94798zM52.97303 34.58982c-.86396 0-1.55994.49198-1.85993 1.05597v-.89998h-.93597v6.23978h.94796v-3.79187c0-1.03195.65999-1.73994 1.61996-1.73994.85197 0 1.47593.6 1.47593 1.59595v3.93586h.94798v-3.89986c0-1.41595-.74398-2.4959-2.19593-2.4959z"/>
    </g>
  </g>
</svg>
