<svg xmlns="http://www.w3.org/2000/svg" viewBox="0 0 51.59534 25.79641">
  <g stroke="#323232" stroke-linecap="round" stroke-linejoin="round">
    <g fill="#fff" stroke-width="1.59396">
      <path d="M11.2268.41555l4.32531 2.49723m-8.65064 0L11.2268.41555M6.90147 2.91278v4.99445m0 0l4.32532 2.49723M6.90147 2.91278L11.2268 5.41m0 4.99445l4.32532-2.49723M11.2268 5.41001l4.32532-2.49723M11.2268 5.41v4.99445m4.32532-7.49168v4.99445M6.90147 2.91278L11.2268 5.41v4.99446L6.90147 7.90723zm8.65064 0L11.2268 5.41v4.99445l4.32532-2.49723zm-8.65064 0L11.2268 5.41l4.32532-2.49723L11.2268.41555z" stroke-width=".8251771524"/>
    </g>
    <g fill="#fff" stroke-width="1.59396">
      <path d="M17.71003 11.64815l4.32532 2.49723m-8.65064 0l4.32532-2.49723m-4.32532 2.49723v4.99445m0 0l4.32532 2.49723m-4.32532-7.49168l4.32532 2.49723m0 4.99445l4.32532-2.49723m-4.32532-2.49722l4.32532-2.49723m-4.32532 2.49723v4.99445m4.32532-7.49168v4.99445m-8.65064-4.99445l4.32532 2.49723v4.99446l-4.32532-2.49724zm8.65064 0l-4.32532 2.49723v4.99445l4.32532-2.49723zm-8.65064 0l4.32532 2.49723 4.32532-2.49723-4.32532-2.49723z" stroke-width=".8251771524"/>
    </g>
    <g fill="#2a8e68" stroke-width="1.59396">
      <path d="M17.711 4.15828L22.0363 6.6555m-8.65064 0L17.711 4.15828M13.38567 6.6555v4.99445m0 0L17.711 14.1472m-4.32532-7.49168L17.711 9.15274m0 4.99445l4.32532-2.49723M17.711 9.15274l4.32532-2.49723M17.711 9.15274v4.99445m4.32532-7.49168v4.99445m-8.65064-4.99445L17.711 9.15274v4.99446l-4.32532-2.49724zm8.65064 0L17.711 9.15274v4.99445l4.32532-2.49723zm-8.65064 0L17.711 9.15274l4.32532-2.49723L17.711 4.15828z" stroke-width=".8251771524"/>
    </g>
    <g fill="#fff" stroke-width="1.59396">
      <path d="M4.74392 11.64483l4.32532 2.49723m-8.65064 0l4.32532-2.49723M.4186 14.14206v4.99445m0 0l4.32532 2.49723M.4186 14.14206l4.32532 2.49723m0 4.99445l4.32532-2.49723M4.74392 16.6393l4.32532-2.49723m-4.32532 2.49723v4.99445m4.32532-7.49168v4.99445M.4186 14.14206l4.32532 2.49723v4.99446L.4186 19.1365zm8.65064 0l-4.32532 2.49723v4.99445l4.32532-2.49723zm-8.65064 0l4.32532 2.49723 4.32532-2.49723-4.32532-2.49723z" stroke-width=".8251771524"/>
    </g>
    <path d="M4.743 4.157l4.32532 2.49722m-8.65064 0L4.743 4.157M.41768 6.65422v4.99445m0 0L4.743 14.1459M.41768 6.65422L4.743 9.15145m0 4.99445l4.32532-2.49723M4.743 9.15145l4.32532-2.49723M4.743 9.15145v4.99445m4.32532-7.49168v4.99445M.41768 6.65422L4.743 9.15145v4.99445L.41768 11.64867zm8.65064 0L4.743 9.15145v4.99445l4.32532-2.49723zm-8.65064 0L4.743 9.15145l4.32532-2.49723L4.743 4.157z" fill="#2a8e68" stroke-width=".82518"/>
    <g fill="#2a8e68" stroke-width="1.59396">
      <path d="M11.22906 15.38903l4.32532 2.49723m-8.65064 0l4.32532-2.49723m-4.32532 2.49723v4.99445m0 0l4.32532 2.49723m-4.32532-7.49168l4.32532 2.49723m0 4.99445l4.32532-2.49723m-4.32532-2.49722l4.32532-2.49723m-4.32532 2.49723v4.99445m4.32532-7.49168v4.99445m-8.65064-4.99445l4.32532 2.49723v4.99446L6.90374 22.8807zm8.65064 0l-4.32532 2.49723v4.99445l4.32532-2.49723zm-8.65064 0l4.32532 2.49723 4.32532-2.49723-4.32532-2.49723z" stroke-width=".8251771524"/>
    </g>
  </g>
  <path d="M49.4527 15.123c-.84299 0-1.52209.48002-1.8148 1.03032v-.87814h-.91325v6.0884h.92495V17.6637c0-1.0069.64397-1.6977 1.58065-1.6977.83129 0 1.44013.58542 1.44013 1.5572v3.8404h.92496v-3.80527c0-1.38158-.72592-2.43533-2.14264-2.43533zm-5.24353 6.24058h.92498v-6.0884h-.92498zm-6.36662-1.87337c0 1.18255.98351 2.02554 2.31827 2.02554.81959 0 1.33475-.3044 1.65087-.66735l.10543.51518h.79616v-4.016c0-1.29964-.65567-2.22459-2.31826-2.22459-1.03033 0-1.8382.40978-2.24801.66738l.37469.67907c.43319-.25757 1.04203-.52687 1.79136-.52687.90155 0 1.47527.49174 1.47527 1.34647v.74933c-.24589-.25758-.83129-.55029-1.60407-.55029-1.36988 0-2.34167.843-2.34167 2.00213zm.93667-.011c0-.71422.59713-1.2528 1.52211-1.2528.91324 0 1.52207.49174 1.52207 1.2528 0 .73761-.62054 1.2645-1.51039 1.2645-.93666 0-1.53379-.56202-1.53379-1.2645zm-4.23642-4.3564c-.8313 0-1.51038.48003-1.80309 1.03033V12.8982h-.92497v8.4652h.92497V17.6635c0-1.00692.65566-1.69772 1.59236-1.69772.81957 0 1.44012.58543 1.44012 1.55721v3.8404h.92493v-3.80526c0-1.38159-.73762-2.43533-2.15432-2.43533zm-3.87218.8313c-.31614-.30444-1.03034-.8313-2.14265-.8313-1.76797 0-3.11444 1.3933-3.11444 3.19637 0 1.80311 1.31135 3.1964 3.12615 3.1964 1.13572 0 1.88505-.60885 2.13094-.86642l-.281-.78446c-.24589.24586-.85473.8079-1.81481.8079-1.2528 0-2.20118-1.04206-2.20118-2.35342 0-1.32305.90155-2.34168 2.17777-2.34168.92495 0 1.55722.51518 1.80308.77275zm15.09296-3.43249h.90159V9.42883c.18259.30816.85593 1.10702 2.09988 1.10702 1.67764 0 2.83029-1.28962 2.83029-3.127 0-1.8146-1.20971-3.1042-2.89876-3.1042-1.28959 0-1.9173.86735-2.06566 1.08417V4.453h-.86734zm.86734-5.11278c0-1.24397.77607-2.2825 2.00861-2.2825 1.14122 0 2.03142.89018 2.03142 2.2825 0 1.35808-.84454 2.30533-2.0086 2.30533-1.11842 0-2.03143-.84453-2.03143-2.30533zM39.55788 8.5615c0 1.15267.95863 1.97435 2.25965 1.97435.79887 0 1.30103-.29674 1.60916-.6505l.10277.50214h.77606V6.47301c0-1.26677-.6391-2.16836-2.25968-2.16836-1.00431 0-1.79177.39942-2.19119.6505l.36519.66192c.42226-.25107 1.0157-.51357 1.7461-.51357.87875 0 1.43798.47934 1.43798 1.31246v.7304c-.23967-.25108-.81027-.5364-1.5635-.5364-1.33526 0-2.28251.8217-2.28251 1.95154zm.91297-.011c0-.69617.58203-1.22115 1.48363-1.22115.89019 0 1.48363.47933 1.48363 1.22115 0 .71898-.60486 1.23253-1.4722 1.23253-.91303 0-1.49506-.5478-1.49506-1.23253zm-4.387 1.83703h.99287l2.0086-5.93448h-.98147l-1.56351 4.88453s-.011-.0228-1.58632-4.88453h-.89019c-1.58632 4.8617-1.59775 4.88453-1.59775 4.88453l-1.5521-4.88453h-.98146l1.99717 5.93448h.99289l1.58633-4.71336zM25.41353 9.26911c.26249.5592.8217 1.26677 2.06566 1.26677 1.15265 0 2.02-.70757 2.02-1.75752 0-2.06565-2.99005-1.5635-2.99005-2.89876 0-.51356.43368-.82169.98147-.82169.76463 0 1.07277.4451 1.23255.76464l.66191-.3766c-.15977-.4451-.73039-1.14127-1.8374-1.14127-1.07278 0-1.90588.60485-1.90588 1.60916 0 2.0086 2.97865 1.54068 2.97865 2.91017 0 .60487-.50215.94726-1.09559.94726-.81029 0-1.23256-.44509-1.48363-.91302z" style="line-height:1.25;-inkscape-font-specification:geomanist" font-weight="400" font-size="9.30647" font-family="geomanist" letter-spacing="0" word-spacing="0" fill="#323232"/>
</svg>
