<svg xmlns="http://www.w3.org/2000/svg" width="267.672" height="97.498" viewBox="0 0 70.822 25.796"><g stroke="#323232" stroke-linecap="round" stroke-linejoin="round"><g fill="#fff" stroke-width="1.594"><path d="M35.982.416l4.325 2.497m-8.65 0L35.981.416m-4.326 2.497v4.994m0 0l4.326 2.497m-4.326-7.491l4.326 2.497m0 4.994l4.325-2.497M35.982 5.41l4.325-2.497M35.982 5.41v4.994m4.325-7.491v4.994m-8.65-4.994l4.325 2.497v4.994l-4.326-2.497zm8.65 0L35.982 5.41v4.994l4.325-2.497zm-8.65 0l4.325 2.497 4.325-2.497L35.982.416z" stroke-width=".8251978600000001"/></g><g fill="#fff" stroke-width="1.594"><path d="M42.465 11.648l4.325 2.497m-8.65 0l4.325-2.497m-4.325 2.497v4.995m0 0l4.325 2.497m-4.325-7.492l4.325 2.498m0 4.994l4.325-2.497m-4.325-2.497l4.325-2.498m-4.325 2.498v4.994m4.325-7.492v4.995m-8.65-4.995l4.325 2.498v4.994L38.14 19.14zm8.65 0l-4.325 2.498v4.994l4.325-2.497zm-8.65 0l4.325 2.498 4.325-2.498-4.325-2.497z" stroke-width=".8251978600000001"/></g><g fill="#2a8e68" stroke-width="1.594"><path d="M42.466 4.158l4.325 2.498m-8.65 0l4.325-2.498m-4.325 2.498v4.994m0 0l4.325 2.497m-4.325-7.491l4.325 2.497m0 4.994l4.325-2.497m-4.325-2.497l4.325-2.497m-4.325 2.497v4.994m4.325-7.491v4.994m-8.65-4.994l4.325 2.497v4.994l-4.325-2.497zm8.65 0l-4.325 2.497v4.994l4.325-2.497zm-8.65 0l4.325 2.497 4.325-2.497-4.325-2.498z" stroke-width=".8251978600000001"/></g><g fill="#fff" stroke-width="1.594"><path d="M29.499 11.645l4.325 2.497m-8.65 0l4.325-2.497m-4.325 2.497v4.995m0 0l4.325 2.497m-4.325-7.492l4.325 2.497m0 4.995l4.325-2.497M29.5 16.639l4.325-2.497M29.5 16.64v4.995m4.325-7.492v4.995m-8.65-4.995l4.325 2.497v4.995l-4.325-2.497zm8.65 0L29.5 16.64v4.995l4.325-2.497zm-8.65 0l4.325 2.497 4.325-2.497-4.325-2.497z" stroke-width=".8251978600000001"/></g><path d="M29.498 4.157l4.325 2.497m-8.65 0l4.325-2.497m-4.325 2.497v4.995m0 0l4.325 2.497m-4.325-7.492l4.325 2.497m0 4.995l4.325-2.497M29.498 9.15l4.325-2.497m-4.325 2.497v4.995m4.325-7.492v4.995m-8.65-4.995l4.325 2.497v4.995l-4.325-2.497zm8.65 0l-4.325 2.497v4.995l4.325-2.497zm-8.65 0l4.325 2.497 4.325-2.497-4.325-2.497z" fill="#2a8e68" stroke-width=".825"/><g fill="#2a8e68" stroke-width="1.594"><path d="M35.984 15.389l4.325 2.497m-8.65 0l4.325-2.497m-4.325 2.497v4.995m0 0l4.325 2.497m-4.325-7.492l4.325 2.497m0 4.995l4.325-2.497m-4.325-2.498l4.325-2.497m-4.325 2.497v4.995m4.325-7.492v4.995m-8.65-4.995l4.325 2.497v4.995L31.66 22.88zm8.65 0l-4.325 2.497v4.995l4.325-2.497zm-8.65 0l4.325 2.497 4.325-2.497-4.325-2.497z" stroke-width=".8251978600000001"/></g></g><g fill="#323232"><g style="line-height:1.25" aria-label="swapchain" font-weight="400" font-size="9.306" font-family="geomanist" letter-spacing="0" word-spacing="0" stroke-width=".233"><path style="-inkscape-font-specification:geomanist" d="M0 14.424c.225.48.705 1.086 1.772 1.086.988 0 1.732-.607 1.732-1.507 0-1.772-2.564-1.34-2.564-2.486 0-.44.372-.705.841-.705.656 0 .92.382 1.057.656l.568-.323c-.137-.382-.626-.979-1.576-.979-.92 0-1.634.52-1.634 1.38 0 1.723 2.554 1.322 2.554 2.496 0 .519-.43.813-.94.813-.694 0-1.056-.382-1.272-.783zM9.151 15.383h.852l1.722-5.09h-.842l-1.34 4.19s-.01-.02-1.361-4.19h-.763c-1.36 4.17-1.37 4.19-1.37 4.19l-1.332-4.19h-.841l1.712 5.09h.852l1.36-4.042zM12.13 13.817c0 .989.823 1.693 1.938 1.693.685 0 1.116-.254 1.38-.558l.088.431h.666v-3.357c0-1.086-.548-1.86-1.938-1.86-.861 0-1.537.343-1.88.558l.314.568c.362-.215.871-.44 1.498-.44.753 0 1.233.41 1.233 1.125v.626c-.206-.215-.695-.46-1.341-.46-1.145 0-1.958.705-1.958 1.674zm.783-.01c0-.596.5-1.047 1.273-1.047.763 0 1.272.411 1.272 1.048 0 .616-.519 1.057-1.262 1.057-.783 0-1.283-.47-1.283-1.057zM17.452 17.213h.774v-2.652c.156.264.734.95 1.8.95 1.44 0 2.428-1.107 2.428-2.682 0-1.557-1.038-2.663-2.486-2.663a2.106 2.106 0 00-1.772.93v-.802h-.744zm.744-4.384c0-1.067.666-1.958 1.723-1.958.979 0 1.742.763 1.742 1.958 0 1.164-.724 1.977-1.722 1.977-.96 0-1.743-.725-1.743-1.977z"/></g></g><g font-weight="400" font-size="9.306" font-family="geomanist" letter-spacing="0" word-spacing="0" fill="#323232"><path d="M53.71 10.96a2.506 2.506 0 00-1.752-.68c-1.446 0-2.547 1.14-2.547 2.614s1.072 2.614 2.556 2.614a2.47 2.47 0 001.743-.709l-.23-.642c-.2.202-.699.661-1.484.661-1.024 0-1.8-.852-1.8-1.924 0-1.082.737-1.915 1.781-1.915a2.08 2.08 0 011.475.632zM56.877 10.28c-.68 0-1.236.392-1.475.842V8.461h-.756v6.922h.756v-3.026c0-.823.536-1.388 1.302-1.388.67 0 1.178.479 1.178 1.274v3.14h.756v-3.112c0-1.13-.603-1.991-1.761-1.991zM59.575 13.851c0 .967.804 1.657 1.896 1.657.67 0 1.091-.25 1.35-.546l.086.421h.651V12.1c0-1.063-.536-1.82-1.896-1.82a3.51 3.51 0 00-1.838.546l.306.556c.355-.21.853-.431 1.465-.431.738 0 1.207.402 1.207 1.101v.613c-.201-.21-.68-.45-1.312-.45-1.12 0-1.915.69-1.915 1.637zm.766-.01c0-.584.488-1.024 1.245-1.024.747 0 1.244.402 1.244 1.024 0 .603-.507 1.034-1.235 1.034-.766 0-1.254-.46-1.254-1.034zM64.781 15.383h.757v-4.979h-.757zM69.07 10.28c-.69 0-1.245.392-1.485.842v-.718h-.746v4.98h.756v-3.027c0-.823.527-1.388 1.293-1.388.68 0 1.177.479 1.177 1.274v3.14h.757v-3.112c0-1.13-.594-1.991-1.753-1.991z" style="line-height:1.25;-inkscape-font-specification:geomanist"/></g></svg>