 <svg xmlns="http://www.w3.org/2000/svg" viewBox="0 0 22.454 25.79641">
                        <g stroke="#1A202C" strokeLinecap="round" strokeLinejoin="round">
                            <g fill="#fff" strokeWidth="1.59396">
                                <path d="M11.2268.41555l4.32531 2.49723m-8.65064 0L11.2268.41555M6.90147 2.91278v4.99445m0 0l4.32532 2.49723M6.90147 2.91278L11.2268 5.41m0 4.99445l4.32532-2.49723M11.2268 5.41001l4.32532-2.49723M11.2268 5.41v4.99445m4.32532-7.49168v4.99445M6.90147 2.91278L11.2268 5.41v4.99446L6.90147 7.90723zm8.65064 0L11.2268 5.41v4.99445l4.32532-2.49723zm-8.65064 0L11.2268 5.41l4.32532-2.49723L11.2268.41555z" strokeWidth=".8251771524" />
                            </g>

                            <g fill="#fff" strokeWidth="1.59396">
                                <path d="M17.71003 11.64815l4.32532 2.49723m-8.65064 0l4.32532-2.49723m-4.32532 2.49723v4.99445m0 0l4.32532 2.49723m-4.32532-7.49168l4.32532 2.49723m0 4.99445l4.32532-2.49723m-4.32532-2.49722l4.32532-2.49723m-4.32532 2.49723v4.99445m4.32532-7.49168v4.99445m-8.65064-4.99445l4.32532 2.49723v4.99446l-4.32532-2.49724zm8.65064 0l-4.32532 2.49723v4.99445l4.32532-2.49723zm-8.65064 0l4.32532 2.49723 4.32532-2.49723-4.32532-2.49723z" strokeWidth=".8251771524" />
                            </g>

                            <g strokeWidth="1.59396">
                                <path d="M17.711 4.15828L22.0363 6.6555m-8.65064 0L17.711 4.15828M13.38567 6.6555v4.99445m0 0L17.711 14.1472m-4.32532-7.49168L17.711 9.15274m0 4.99445l4.32532-2.49723M17.711 9.15274l4.32532-2.49723M17.711 9.15274v4.99445m4.32532-7.49168v4.99445m-8.65064-4.99445L17.711 9.15274v4.99446l-4.32532-2.49724zm8.65064 0L17.711 9.15274v4.99445l4.32532-2.49723zm-8.65064 0L17.711 9.15274l4.32532-2.49723L17.711 4.15828z" strokeWidth=".8251771524" />
                            </g>

                            <g fill="#fff" strokeWidth="1.59396">
                                <path d="M4.74392 11.64483l4.32532 2.49723m-8.65064 0l4.32532-2.49723M.4186 14.14206v4.99445m0 0l4.32532 2.49723M.4186 14.14206l4.32532 2.49723m0 4.99445l4.32532-2.49723M4.74392 16.6393l4.32532-2.49723m-4.32532 2.49723v4.99445m4.32532-7.49168v4.99445M.4186 14.14206l4.32532 2.49723v4.99446L.4186 19.1365zm8.65064 0l-4.32532 2.49723v4.99445l4.32532-2.49723zm-8.65064 0l4.32532 2.49723 4.32532-2.49723-4.32532-2.49723z" strokeWidth=".8251771524" />
                            </g>

                            <path d="M4.743 4.157l4.32532 2.49722m-8.65064 0L4.743 4.157M.41768 6.65422v4.99445m0 0L4.743 14.1459M.41768 6.65422L4.743 9.15145m0 4.99445l4.32532-2.49723M4.743 9.15145l4.32532-2.49723M4.743 9.15145v4.99445m4.32532-7.49168v4.99445M.41768 6.65422L4.743 9.15145v4.99445L.41768 11.64867zm8.65064 0L4.743 9.15145v4.99445l4.32532-2.49723zm-8.65064 0L4.743 9.15145l4.32532-2.49723L4.743 4.157z" fill="current-color" strokeWidth=".82518" />

                            <g strokeWidth="1.59396">
                                <path d="M11.22906 15.38903l4.32532 2.49723m-8.65064 0l4.32532-2.49723m-4.32532 2.49723v4.99445m0 0l4.32532 2.49723m-4.32532-7.49168l4.32532 2.49723m0 4.99445l4.32532-2.49723m-4.32532-2.49722l4.32532-2.49723m-4.32532 2.49723v4.99445m4.32532-7.49168v4.99445m-8.65064-4.99445l4.32532 2.49723v4.99446L6.90374 22.8807zm8.65064 0l-4.32532 2.49723v4.99445l4.32532-2.49723zm-8.65064 0l4.32532 2.49723 4.32532-2.49723-4.32532-2.49723z" strokeWidth=".8251771524" />
                            </g>
                        </g>
                    </svg>